HIERARCHY
ROOT Root
{
  OFFSET 0.0 0.0 0.0
  CHANNELS 6 Xposition Yposition Zposition Zrotation Yrotation Xrotation
  JOINT Hips
  {
    OFFSET 0.0 100.0 0.0
    CHANNELS 6 Xposition Yposition Zposition Zrotation Yrotation Xrotation
    JOINT Spine1
    {
      OFFSET -0.013727 5.003763 -0.053727
      CHANNELS 3 Zrotation Yrotation Xrotation
      JOINT Spine2
      {
        OFFSET -0.0 7.125301 -0.029825
        CHANNELS 3 Zrotation Yrotation Xrotation
        JOINT Chest
        {
          OFFSET -1e-06 7.550063 -0.815971
          CHANNELS 3 Zrotation Yrotation Xrotation
          JOINT Neck1
          {
            OFFSET -0.181677 26.311295 -0.553348
            CHANNELS 3 Zrotation Yrotation Xrotation
            JOINT Neck2
            {
              OFFSET -3e-06 7.709397 2.302585
              CHANNELS 3 Zrotation Yrotation Xrotation
              JOINT Head
              {
                OFFSET -5e-06 6.128916 1.953709
                CHANNELS 3 Zrotation Yrotation Xrotation
                JOINT HeadEnd
                {
                  OFFSET 0.003598 16.065403 -1.835379
                  CHANNELS 3 Zrotation Yrotation Xrotation
                }
                JOINT Jaw
                {
                  OFFSET 0.002637 0.475592 3.094941
                  CHANNELS 3 Zrotation Yrotation Xrotation
                }
                JOINT LeftEye
                {
                  OFFSET 3.206381 5.380205 7.586883
                  CHANNELS 3 Zrotation Yrotation Xrotation
                }
                JOINT RightEye
                {
                  OFFSET -3.22244 5.361869 7.558234
                  CHANNELS 3 Zrotation Yrotation Xrotation
                }
              }
            }
          }
          JOINT LeftShoulder
          {
            OFFSET 1.621652 23.237164 5.113413
            CHANNELS 3 Zrotation Yrotation Xrotation
            JOINT LeftArm
            {
              OFFSET 14.919846 2e-06 -5.502326
              CHANNELS 3 Zrotation Yrotation Xrotation
              JOINT LeftForeArm
              {
                OFFSET 28.739307 0.0 -0.002588
                CHANNELS 3 Zrotation Yrotation Xrotation
                JOINT LeftHand
                {
                  OFFSET 27.093981 -1e-06 0.002609
                  CHANNELS 3 Zrotation Yrotation Xrotation
                  JOINT LeftHandThumb1
                  {
                    OFFSET 2.276482 -1.392045 3.191413
                    CHANNELS 3 Zrotation Yrotation Xrotation
                    JOINT LeftHandThumb2
                    {
                      OFFSET 4.012836 -1.828127 1.641654
                      CHANNELS 3 Zrotation Yrotation Xrotation
                      JOINT LeftHandThumb3
                      {
                        OFFSET 2.798515 0.0 -3e-06
                        CHANNELS 3 Zrotation Yrotation Xrotation
                        JOINT LeftHandThumbEnd
                        {
                          OFFSET 3.180793 -4e-06 4e-06
                          CHANNELS 3 Zrotation Yrotation Xrotation
                        }
                      }
                    }
                  }
                  JOINT LeftHandIndex1
                  {
                    OFFSET 3.247555 -0.531998 2.296169
                    CHANNELS 3 Zrotation Yrotation Xrotation
                    JOINT LeftHandIndex2
                    {
                      OFFSET 6.364578 0.01206 0.1786
                      CHANNELS 3 Zrotation Yrotation Xrotation
                      JOINT LeftHandIndex3
                      {
                        OFFSET 3.662364 0.0 0.0
                        CHANNELS 3 Zrotation Yrotation Xrotation
                        JOINT LeftHandIndex4
                        {
                          OFFSET 2.329242 4e-06 4e-06
                          CHANNELS 3 Zrotation Yrotation Xrotation
                          JOINT LeftHandIndexEnd
                          {
                            OFFSET 2.759615 -0.180537 -0.113024
                            CHANNELS 3 Zrotation Yrotation Xrotation
                          }
                        }
                      }
                    }
                  }
                  JOINT LeftHandMiddle1
                  {
                    OFFSET 3.163495 0.240981 1.000332
                    CHANNELS 3 Zrotation Yrotation Xrotation
                    JOINT LeftHandMiddle2
                    {
                      OFFSET 6.19078 -0.259278 -1.002548
                      CHANNELS 3 Zrotation Yrotation Xrotation
                      JOINT LeftHandMiddle3
                      {
                        OFFSET 4.35652 -4e-06 -1e-06
                        CHANNELS 3 Zrotation Yrotation Xrotation
                        JOINT LeftHandMiddle4
                        {
                          OFFSET 2.996877 -8e-06 0.0
                          CHANNELS 3 Zrotation Yrotation Xrotation
                          JOINT LeftHandMiddleEnd
                          {
                            OFFSET 2.304287 -0.294569 -0.031741
                            CHANNELS 3 Zrotation Yrotation Xrotation
                          }
                        }
                      }
                    }
                  }
                  JOINT LeftHandRing1
                  {
                    OFFSET 2.882643 -0.053652 -0.322543
                    CHANNELS 3 Zrotation Yrotation Xrotation
                    JOINT LeftHandRing2
                    {
                      OFFSET 5.854541 -0.486202 -1.373841
                      CHANNELS 3 Zrotation Yrotation Xrotation
                      JOINT LeftHandRing3
                      {
                        OFFSET 4.350578 0.0 3e-06
                        CHANNELS 3 Zrotation Yrotation Xrotation
                        JOINT LeftHandRing4
                        {
                          OFFSET 2.651321 7e-06 2e-06
                          CHANNELS 3 Zrotation Yrotation Xrotation
                          JOINT LeftHandRingEnd
                          {
                            OFFSET 1.936105 0.077687 -7.1e-05
                            CHANNELS 3 Zrotation Yrotation Xrotation
                          }
                        }
                      }
                    }
                  }
                  JOINT LeftHandPinky1
                  {
                    OFFSET 2.8655 -0.310005 -1.600378
                    CHANNELS 3 Zrotation Yrotation Xrotation
                    JOINT LeftHandPinky2
                    {
                      OFFSET 5.087849 -1.331141 -1.77123
                      CHANNELS 3 Zrotation Yrotation Xrotation
                      JOINT LeftHandPinky3
                      {
                        OFFSET 3.070974 4e-06 0.0
                        CHANNELS 3 Zrotation Yrotation Xrotation
                        JOINT LeftHandPinky4
                        {
                          OFFSET 1.549672 0.0 1e-06
                          CHANNELS 3 Zrotation Yrotation Xrotation
                          JOINT LeftHandPinkyEnd
                          {
                            OFFSET 1.944893 -0.157802 0.057219
                            CHANNELS 3 Zrotation Yrotation Xrotation
                          }
                        }
                      }
                    }
                  }
                }
              }
            }
          }
          JOINT RightShoulder
          {
            OFFSET -1.380118 23.180309 5.214158
            CHANNELS 3 Zrotation Yrotation Xrotation
            JOINT RightArm
            {
              OFFSET -15.037196 1.2e-05 -5.545604
              CHANNELS 3 Zrotation Yrotation Xrotation
              JOINT RightForeArm
              {
                OFFSET -28.736639 2e-06 -0.002597
                CHANNELS 3 Zrotation Yrotation Xrotation
                JOINT RightHand
                {
                  OFFSET -27.133619 -0.0 0.002613
                  CHANNELS 3 Zrotation Yrotation Xrotation
                  JOINT RightHandThumb1
                  {
                    OFFSET -2.274032 -1.383988 3.163127
                    CHANNELS 3 Zrotation Yrotation Xrotation
                    JOINT RightHandThumb2
                    {
                      OFFSET -4.011429 -1.827466 1.640914
                      CHANNELS 3 Zrotation Yrotation Xrotation
                      JOINT RightHandThumb3
                      {
                        OFFSET -2.794935 -4e-06 -3e-06
                        CHANNELS 3 Zrotation Yrotation Xrotation
                        JOINT RightHandThumbEnd
                        {
                          OFFSET -3.183852 4e-06 1e-06
                          CHANNELS 3 Zrotation Yrotation Xrotation
                        }
                      }
                    }
                  }
                  JOINT RightHandIndex1
                  {
                    OFFSET -3.253266 -0.520057 2.282866
                    CHANNELS 3 Zrotation Yrotation Xrotation
                    JOINT RightHandIndex2
                    {
                      OFFSET -6.341917 0.012471 0.178266
                      CHANNELS 3 Zrotation Yrotation Xrotation
                      JOINT RightHandIndex3
                      {
                        OFFSET -3.654871 -8e-06 -0.0
                        CHANNELS 3 Zrotation Yrotation Xrotation
                        JOINT RightHandIndex4
                        {
                          OFFSET -2.327586 0.0 1e-06
                          CHANNELS 3 Zrotation Yrotation Xrotation
                          JOINT RightHandIndexEnd
                          {
                            OFFSET -2.76179 -0.180656 -0.113078
                            CHANNELS 3 Zrotation Yrotation Xrotation
                          }
                        }
                      }
                    }
                  }
                  JOINT RightHandMiddle1
                  {
                    OFFSET -3.168106 0.246593 1.00103
                    CHANNELS 3 Zrotation Yrotation Xrotation
                    JOINT RightHandMiddle2
                    {
                      OFFSET -6.180828 -0.258836 -1.000895
                      CHANNELS 3 Zrotation Yrotation Xrotation
                      JOINT RightHandMiddle3
                      {
                        OFFSET -4.348901 0.0 -0.0
                        CHANNELS 3 Zrotation Yrotation Xrotation
                        JOINT RightHandMiddle4
                        {
                          OFFSET -3.00024 -4e-06 -2e-06
                          CHANNELS 3 Zrotation Yrotation Xrotation
                          JOINT RightHandMiddleEnd
                          {
                            OFFSET -2.30252 -0.29437 -0.031706
                            CHANNELS 3 Zrotation Yrotation Xrotation
                          }
                        }
                      }
                    }
                  }
                  JOINT RightHandRing1
                  {
                    OFFSET -2.88569 -0.067952 -0.308858
                    CHANNELS 3 Zrotation Yrotation Xrotation
                    JOINT RightHandRing2
                    {
                      OFFSET -5.854198 -0.48613 -1.373731
                      CHANNELS 3 Zrotation Yrotation Xrotation
                      JOINT RightHandRing3
                      {
                        OFFSET -4.33881 -4e-06 -0.0
                        CHANNELS 3 Zrotation Yrotation Xrotation
                        JOINT RightHandRing4
                        {
                          OFFSET -2.654903 -4e-06 4e-06
                          CHANNELS 3 Zrotation Yrotation Xrotation
                          JOINT RightHandRingEnd
                          {
                            OFFSET -1.933568 0.077527 -5.2e-05
                            CHANNELS 3 Zrotation Yrotation Xrotation
                          }
                        }
                      }
                    }
                  }
                  JOINT RightHandPinky1
                  {
                    OFFSET -2.866425 -0.342796 -1.584145
                    CHANNELS 3 Zrotation Yrotation Xrotation
                    JOINT RightHandPinky2
                    {
                      OFFSET -5.091371 -1.332055 -1.772385
                      CHANNELS 3 Zrotation Yrotation Xrotation
                      JOINT RightHandPinky3
                      {
                        OFFSET -3.062664 -4e-06 1e-06
                        CHANNELS 3 Zrotation Yrotation Xrotation
                        JOINT RightHandPinky4
                        {
                          OFFSET -1.546529 4e-06 -2e-06
                          CHANNELS 3 Zrotation Yrotation Xrotation
                          JOINT RightHandPinkyEnd
                          {
                            OFFSET -1.945119 -0.157718 0.057211
                            CHANNELS 3 Zrotation Yrotation Xrotation
                          }
                        }
                      }
                    }
                  }
                }
              }
            }
          }
        }
      }
    }
    JOINT LeftLeg
    {
      OFFSET 10.043214 -8.434526 2.595655
      CHANNELS 3 Zrotation Yrotation Xrotation
      JOINT LeftShin
      {
        OFFSET -1e-06 -43.221752 -0.802913
        CHANNELS 3 Zrotation Yrotation Xrotation
        JOINT LeftFoot
        {
          OFFSET 1e-06 -42.155094 -3.481523
          CHANNELS 3 Zrotation Yrotation Xrotation
          JOINT LeftToeBase
          {
            OFFSET 0.0 -5.059472 13.231529
            CHANNELS 3 Zrotation Yrotation Xrotation
            JOINT LeftToeEnd
            {
              OFFSET -0.009607 -1.647619 6.513017
              CHANNELS 3 Zrotation Yrotation Xrotation
            }
          }
        }
      }
    }
    JOINT RightLeg
    {
      OFFSET -10.047278 -8.29526 2.620317
      CHANNELS 3 Zrotation Yrotation Xrotation
      JOINT RightShin
      {
        OFFSET 1e-06 -43.362206 -0.805556
        CHANNELS 3 Zrotation Yrotation Xrotation
        JOINT RightFoot
        {
          OFFSET 2e-06 -42.117393 -3.478398
          CHANNELS 3 Zrotation Yrotation Xrotation
          JOINT RightToeBase
          {
            OFFSET -0.0 -5.079609 13.284196
            CHANNELS 3 Zrotation Yrotation Xrotation
            JOINT RightToeEnd
            {
              OFFSET 0.009532 -1.634378 6.460591
              CHANNELS 3 Zrotation Yrotation Xrotation
            }
          }
        }
      }
    }
  }
}
MOTION
Frames: 4
Frame Time: 0.03333333333333333
0.0 0.0 0.0 0.0 -0.0 0.0 3.429009 99.506416 155.16954 -2.587791 -2.274911 -1.171001 0.964302 0.458424 4.240881 -0.62508 -0.972739 -4.001842 0.270898 -2.859652 15.910757 9.165457 -1.204 9.752485 0.509066 4.838808 -3.608067 -0.198819 5.324563 -14.313413 7.7e-05 -2.2e-05 6e-06 -0.008979 -0.089624 0.019148 0.68705 -3.799102 -10.59463 -0.702177 3.629199 -10.555473 -6.78515 -13.319276 19.822289 -57.412235 -9.302195 23.980871 -1.083048 -38.921967 0.466812 4.424998 7.282009 -20.648836 -5.882114 9.861297 0.702589 -10.936885 -0.360574 7.156213 0.0 8.774835 0.0 -16.429667 17.768122 5.951486 -1.844035 2.498507 -2.507281 -10.163611 4.678951 4.621111 -20.976051 -2e-06 -0.0 -21.226315 2.4517 -3.594005 0.0 -7e-06 -2e-06 -1.362683 2.240801 -0.746324 -21.33494 0.584913 3.008327 -13.821231 -3e-06 -1e-06 -23.887196 -0.249079 -0.839487 -60.419575 2.490454 -1.140604 -0.294025 1.679689 0.833258 -14.218226 0.093216 1.300581 -34.212086 -0.287564 0.967168 -20.033236 0.964536 1.212842 -1e-06 -0.0 -2e-06 -3.440392 0.788234 0.501658 -15.928205 -3.167311 2.999711 -6.338833 -1e-06 -0.0 -18.123466 3.648187 -4.905678 -4e-06 1e-06 -1e-06 4.458178 13.679327 15.936376 58.819061 22.789141 25.86434 0.72105 37.780861 0.442582 -3.63161 -4.567076 -23.143373 2.243544 -5.255042 -3.18016 14.282904 -0.826597 6.952507 -2e-06 -12.690618 1e-06 16.033926 -17.386106 2.762658 1.665667 -1.955924 -2.878302 4.727803 -4.170592 4.993929 11.020536 4e-06 -1e-06 12.109061 -3.735717 -2.866786 0.0 -0.0 -0.0 1.291987 -1.92855 -1.498091 14.800142 0.567467 3.865611 14.242585 -1.341737 -6.660664 19.631985 0.143926 -0.648245 49.468983 -0.805029 -6.105785 0.35303 -1.511151 -0.03194 20.222807 3.684313 2.316632 18.787289 4e-06 -1e-06 10.751636 -0.479868 1.397907 -0.0 0.0 0.0 3.273809 0.305948 -0.580111 21.486832 11.830386 2.266133 8.162935 2e-06 1e-06 18.399099 -3.798987 -4.94058 4e-06 -0.0 -0.0 5.499547 10.327746 -16.849195 -0.063863 0.073214 61.196774 -10.783421 -2.693793 -1.252115 1.636718 -1.774376 -2.780714 -0.0 0.0 3e-06 3.903942 -2.873944 -3.725833 0.046263 -0.176755 11.811056 -0.35924 -1.863874 -6.933884 -1.410158 1.011836 0.880669 -0.0 -0.0 -1e-06 
0.0 0.0 0.0 0.0 -0.0 0.0 3.472143 99.640488 157.774872 -1.849154 -3.776663 -0.532861 0.606745 0.600112 4.389624 -0.699014 -0.422095 -3.945377 -0.191019 -2.199254 15.883974 9.179501 -1.013019 9.157946 0.465589 4.952417 -3.61964 -0.099692 5.38201 -14.358043 7.7e-05 -2.2e-05 6e-06 -0.003072 -0.102104 0.017063 0.70385 -3.813099 -10.589156 -0.707871 3.615733 -10.549222 -7.110281 -12.418559 20.044506 -57.570786 -6.96223 23.823027 -0.857768 -39.509449 0.424508 3.753683 7.340724 -22.628355 -5.882108 9.86129 0.702593 -10.936875 -0.360574 7.15621 -1e-06 8.774828 -2e-06 -16.547798 17.735291 5.900314 -1.844033 2.498506 -2.507277 -10.163602 4.678947 4.62111 -20.97603 -2e-06 2e-06 -21.226292 2.451698 -3.594002 1e-06 -7e-06 -1e-06 -1.362682 2.240799 -0.746323 -21.334921 0.58491 3.008325 -13.821218 -2e-06 2e-06 -23.887178 -0.24908 -0.839483 -60.541588 2.437712 -1.099751 -0.294025 1.679688 0.833256 -14.218214 0.093216 1.30058 -34.212055 -0.287562 0.967169 -20.03322 0.964538 1.212843 1e-06 -1e-06 0.0 -3.44039 0.788234 0.501658 -15.928191 -3.167309 2.999708 -6.338829 -1e-06 -0.0 -18.123453 3.648185 -4.905674 -5e-06 -0.0 -2e-06 3.325714 14.766958 15.487083 58.004971 24.442312 26.525301 0.50256 39.798286 0.42458 -3.877624 -3.772892 -23.563992 2.243541 -5.255037 -3.180158 14.282892 -0.826595 6.952503 -2e-06 -12.690607 -1e-06 16.016703 -17.364937 2.75437 1.665666 -1.955922 -2.878299 4.727798 -4.170588 4.993924 11.020526 2e-06 -1e-06 12.109052 -3.735717 -2.866783 -1e-06 0.0 -0.0 1.291986 -1.92855 -1.498091 14.800129 0.567467 3.865608 14.242572 -1.341737 -6.660659 19.631969 0.143925 -0.648245 49.529434 -0.771663 -6.0485 0.353029 -1.51115 -0.031939 20.222788 3.684308 2.316629 18.787271 5e-06 -1e-06 10.751627 -0.47987 1.397905 2e-06 2e-06 -1e-06 3.273806 0.305947 -0.580112 21.486811 11.830374 2.266135 8.16293 1e-06 -0.0 18.399086 -3.798987 -4.940577 5e-06 0.0 1e-06 3.896203 10.829624 -20.511257 0.016767 0.161542 56.239979 -9.876118 -0.611482 -2.552363 1.682086 -1.776552 -2.591881 0.0 -0.0 2e-06 2.903692 -2.6261 -2.035356 0.092897 -0.192166 10.334832 0.286169 -0.7368 -7.714929 -1.416795 0.961624 0.829019 -0.0 -0.0 -1e-06 
0.0 0.0 0.0 0.0 -0.0 0.0 3.55386 99.584198 160.372314 -1.540855 -5.0173 0.239259 0.433273 0.627277 4.441272 -0.742251 0.107758 -3.921243 -0.479588 -1.602488 15.981009 9.009512 -0.789149 8.533453 0.423745 5.116391 -3.64857 -0.068308 5.325369 -14.605787 7.6e-05 -2.2e-05 6e-06 0.003171 -0.112894 0.01987 0.708725 -3.83114 -10.588513 -0.700976 3.610449 -10.550285 -7.407681 -11.636767 20.301554 -57.32692 -5.36087 24.455526 -0.599271 -40.184994 0.403458 2.82739 7.482148 -23.890278 -5.882115 9.861299 0.702591 -10.936882 -0.360572 7.156209 -3e-06 8.774835 1e-06 -16.663391 17.67873 5.840851 -1.844035 2.498507 -2.507279 -10.163611 4.678954 4.621112 -20.976044 4e-06 -2e-06 -21.226309 2.451705 -3.594011 0.0 -5e-06 0.0 -1.362683 2.240801 -0.746326 -21.334932 0.584917 3.008323 -13.821225 1e-06 -0.0 -23.887192 -0.249074 -0.839489 -60.596127 2.390751 -0.966528 -0.294026 1.679689 0.833258 -14.218223 0.09322 1.300581 -34.212082 -0.287555 0.967161 -20.033232 0.96454 1.212838 -0.0 -1e-06 0.0 -3.440392 0.788235 0.501657 -15.9282 -3.167307 2.999708 -6.338833 1e-06 -1e-06 -18.123466 3.648193 -4.905678 -4e-06 -0.0 -2e-06 2.318944 15.683352 15.136929 56.737381 25.721006 26.792816 0.268239 42.382893 0.28331 -4.352059 -2.929117 -23.742979 2.243543 -5.255037 -3.180156 14.282887 -0.826594 6.952502 0.0 -12.690603 -2e-06 15.981924 -17.395887 2.72984 1.665666 -1.955923 -2.878298 4.727798 -4.170588 4.993924 11.020522 1e-06 -2e-06 12.10905 -3.735719 -2.866785 -1e-06 -0.0 -1e-06 1.291985 -1.928549 -1.49809 14.800125 0.567467 3.865607 14.242569 -1.34174 -6.660658 19.631962 0.143924 -0.648247 49.544422 -0.730782 -6.022358 0.353029 -1.511151 -0.03194 20.222786 3.684308 2.316631 18.78727 3e-06 -3e-06 10.751625 -0.479868 1.397902 2e-06 2e-06 -2e-06 3.273806 0.305947 -0.58011 21.486809 11.830376 2.266131 8.162925 1e-06 -2e-06 18.399082 -3.798987 -4.94058 4e-06 0.0 0.0 2.925734 10.634828 -23.196587 0.08229 0.178628 48.202187 -9.004394 1.211094 -2.726058 1.729471 -1.815039 -2.419779 -0.0 0.0 3e-06 2.23308 -2.67838 -0.766939 0.113555 -0.153975 9.356972 1.040373 0.303987 -8.722141 -1.426278 0.937841 0.847429 -0.0 -0.0 -1e-06 
0.0 0.0 0.0 0.0 -0.0 0.0 3.676029 99.35701 162.991211 -1.635668 -5.862684 1.091627 0.440291 0.542182 4.375639 -0.785319 0.513778 -3.94643 -0.576865 -1.070038 16.092392 8.712722 -0.625857 8.193114 0.44462 5.197765 -3.645254 -0.136542 5.237048 -14.867825 7.7e-05 -2.2e-05 6e-06 0.013753 -0.1014 0.029419 0.716193 -3.828365 -10.594019 -0.687544 3.630391 -10.563686 -7.4838 -11.031489 20.461374 -57.183804 -4.498071 25.514748 -0.448757 -40.274967 0.420645 2.013682 7.84914 -24.383223 -5.882109 9.86129 0.702591 -10.936873 -0.360573 7.156205 -1e-06 8.774828 2e-06 -16.669109 17.578842 5.860862 -1.844033 2.498505 -2.507277 -10.163601 4.678949 4.621109 -20.976025 1e-06 1e-06 -21.22629 2.451699 -3.594004 1e-06 -4e-06 1e-06 -1.362682 2.240799 -0.746321 -21.334917 0.584913 3.00832 -13.821215 0.0 -0.0 -23.887175 -0.249077 -0.839486 -60.566746 2.38159 -0.832585 -0.294025 1.679688 0.833255 -14.21821 0.093218 1.30058 -34.212051 -0.287559 0.967166 -20.033218 0.964539 1.212841 -0.0 -1e-06 -0.0 -3.440389 0.788234 0.501656 -15.928187 -3.167308 2.999707 -6.338827 -0.0 1e-06 -18.123451 3.648186 -4.905673 -6e-06 1e-06 -2e-06 1.437706 16.36307 14.906728 55.528095 26.598219 26.558357 0.085014 44.830864 0.099196 -4.976274 -2.369859 -23.708462 2.243543 -5.255038 -3.18016 14.282896 -0.826598 6.952505 1e-06 -12.690609 0.0 15.97633 -17.467424 2.680081 1.665668 -1.955924 -2.878297 4.727802 -4.170589 4.993925 11.020531 1e-06 -2e-06 12.109058 -3.735719 -2.866787 0.0 -0.0 -0.0 1.291986 -1.92855 -1.498088 14.800136 0.567467 3.86561 14.242579 -1.34174 -6.660662 19.631973 0.143923 -0.648246 49.507931 -0.745828 -6.108921 0.353029 -1.511152 -0.031939 20.222795 3.684305 2.316631 18.787281 1e-06 -2e-06 10.751632 -0.479872 1.397906 0.0 1e-06 -1e-06 3.273808 0.305945 -0.580111 21.486818 11.830376 2.266135 8.162933 -1e-06 -2e-06 18.399094 -3.798991 -4.940581 4e-06 0.0 1e-06 2.673115 9.924034 -24.488604 0.099864 0.175732 36.86282 -8.261626 2.686378 -1.075065 1.757832 -1.850702 -2.227887 -0.0 -0.0 2e-06 1.934411 -3.015267 0.344588 0.088525 -0.075397 8.652475 1.711723 1.315266 -9.895562 -1.43313 0.954484 0.941365 -0.0 -0.0 -1e-06 
